<?xml version="1.0" encoding="UTF-8" standalone="no"?>
<!-- Created with Inkscape (http://www.inkscape.org/) -->

<svg
   xmlns:dc="http://purl.org/dc/elements/1.1/"
   xmlns:cc="http://creativecommons.org/ns#"
   xmlns:rdf="http://www.w3.org/1999/02/22-rdf-syntax-ns#"
   xmlns:svg="http://www.w3.org/2000/svg"
   xmlns="http://www.w3.org/2000/svg"
   xmlns:sodipodi="http://sodipodi.sourceforge.net/DTD/sodipodi-0.dtd"
   xmlns:inkscape="http://www.inkscape.org/namespaces/inkscape"
   width="210mm"
   height="297mm"
   viewBox="0 0 210 297"
   version="1.1"
   id="svg3832"
   inkscape:version="0.92.1 r15371"
   sodipodi:docname="CYBER-LOGO.svg">
  <defs
     id="defs3826" />
  <sodipodi:namedview
     id="base"
     pagecolor="#ffffff"
     bordercolor="#666666"
     borderopacity="1.0"
     inkscape:pageopacity="0.0"
     inkscape:pageshadow="2"
     inkscape:zoom="1.4"
     inkscape:cx="234.21801"
     inkscape:cy="584.49341"
     inkscape:document-units="mm"
     inkscape:current-layer="layer1"
     showgrid="false"
     inkscape:window-width="1360"
     inkscape:window-height="677"
     inkscape:window-x="0"
     inkscape:window-y="31"
     inkscape:window-maximized="1" />
  <metadata
     id="metadata3829">
    <rdf:RDF>
      <cc:Work
         rdf:about="">
        <dc:format>image/svg+xml</dc:format>
        <dc:type
           rdf:resource="http://purl.org/dc/dcmitype/StillImage" />
        <dc:title></dc:title>
      </cc:Work>
    </rdf:RDF>
  </metadata>
  <g
     inkscape:label="Layer 1"
     inkscape:groupmode="layer"
     id="layer1">
    <circle
       id="path23"
       cx="-58.736671"
       cy="-144.53262"
       style="fill:#ffffff;stroke-width:0.12105002"
       transform="rotate(-175.80079)"
       r="35" />
    <circle
       id="path23-0"
       cx="-63.061718"
       cy="-135.15651"
       style="stroke-width:0.12105004"
       transform="rotate(-175.80079)"
       r="35" />
    <g
       id="g3966"
       transform="translate(4.6845405,-3.0238095)"
       style="fill:#ffffff">
      <g
         id="flowRoot3738"
         style="font-style:normal;font-weight:normal;font-size:40px;line-height:1.25;font-family:sans-serif;letter-spacing:0px;word-spacing:0px;fill:#ffffff;fill-opacity:1;stroke:none"
         transform="matrix(0.26458333,0,0,0.26458333,212.72214,-86.061514)"
         aria-label="Cyber
">
        <path
           inkscape:connector-curvature="0"
           id="path3905"
           style="font-style:normal;font-variant:normal;font-weight:normal;font-stretch:normal;font-family:Karla;-inkscape-font-specification:Karla;fill:#ffffff"
           d="m -664.10258,785.2742 q 2.4,0 4.16,0.6 1.76,0.56 3.04,1.6 2.52,2.04 3.28,5.72 l -5.04,0.92 q -0.64,-2.04 -2,-3.28 -1.32,-1.28 -3.32,-1.28 -2.72,0 -4.4,2.28 -1.8,2.48 -1.8,6.88 0,4.36 1.6,6.84 1.6,2.44 4.36,2.44 2.76,0 4.16,-1.32 1.4,-1.36 1.4,-3.48 h 5.08 q 0,4.36 -2.8,6.76 -2.76,2.36 -7.6,2.36 -5.16,0 -8.2,-3.6 -3.08,-3.68 -3.08,-10 0,-6.4 3.16,-10 3.04,-3.44 8,-3.44 z" />
        <path
           sodipodi:nodetypes="cccccccccccc"
           inkscape:connector-curvature="0"
           id="path3907"
           style="font-style:normal;font-variant:normal;font-weight:normal;font-stretch:normal;font-family:Karla;-inkscape-font-specification:Karla;fill:#ffffff"
           d="m -645.63195,792.3142 4.68,14 4.08,-14 h 4.8 l -7.44,22.96 c -0.77333,2.32 -1.72,3.98667 -2.84,5 l -5.2,-2.6 c 0.93333,0 1.69333,-0.37333 2.28,-1.12 0.61333,-0.74667 1.10667,-1.72 1.48,-2.92 l 0.6,-1.88 -7.8,-19.44 z" />
        <path
           inkscape:connector-curvature="0"
           id="path3909"
           style="font-style:normal;font-variant:normal;font-weight:normal;font-stretch:normal;font-family:Karla;-inkscape-font-specification:Karla;fill:#ffffff"
           d="m -621.5557,792.9942 q 1.56,-1.2 4.56,-1.2 3,0 5.44,2.8 2.48,2.8 2.48,7.36 0,4.56 -2.6,7.52 -2.52,2.84 -6.28,2.84 -1.8,0 -3.32,-0.96 -1.48,-0.96 -2.36,-2.96 l -1.16,3.36 h -3.08 v -27.44 h 4.72 v 16.52 2.56 q 0.08,2.04 1.48,3.36 1.32,1.28 3.2,1.28 1.92,0 3.28,-1.64 1.36,-1.68 1.36,-4.4 0,-2.72 -1.36,-4.32 -1.32,-1.64 -3.2,-1.64 -1.88,0 -3.16,1.04 z" />
        <path
           inkscape:connector-curvature="0"
           id="path3911"
           style="font-style:normal;font-variant:normal;font-weight:normal;font-stretch:normal;font-family:Karla;-inkscape-font-specification:Karla;fill:#ffffff"
           d="m -598.90445,800.1942 h 6.72 q 0,-3.16 -2,-4.24 -0.76,-0.4 -1.84,-0.4 -2.04,0 -3.16,1.32 -1.12,1.28 -1.32,3.32 v 3 q 0.08,2.36 1.16,3.84 1.08,1.48 3.28,1.48 2.92,0 3.48,-2.56 h 4.76 q -0.48,2.92 -2.68,4.6 -2.28,1.76 -5.56,1.76 -3.84,0 -6.44,-2.8 -2.68,-2.92 -2.68,-7.48 0,-4.68 2.68,-7.52 2.56,-2.72 6.44,-2.72 4.04,0 6.28,2.84 1,1.28 1.48,2.96 0.52,1.68 0.52,3.08 0,1.4 -0.16,2.52 l -10.96,0.04 z" />
        <path
           inkscape:connector-curvature="0"
           id="path3913"
           style="font-style:normal;font-variant:normal;font-weight:normal;font-stretch:normal;font-family:Karla;-inkscape-font-specification:Karla;fill:#ffffff"
           d="m -577.45258,796.1542 q 1.76,-4.2 5.28,-4.2 0.68,0 1.72,0.28 l -0.08,4.72 q -1.12,-0.24 -2.2,-0.24 -4.72,0 -4.72,6.52 v 8.52 h -4.72 v -19.48 h 4.72 z" />
      </g>
      <g
         id="flowRoot3738-7"
         style="font-style:normal;font-weight:normal;font-size:40px;line-height:1.25;font-family:sans-serif;letter-spacing:0px;word-spacing:0px;fill:#ffffff;fill-opacity:1;stroke:none"
         transform="matrix(0.26458333,0,0,0.26458333,206.21018,-79.530364)"
         aria-label="Security
">
        <path
           inkscape:connector-curvature="0"
           id="path3916"
           style="font-style:normal;font-variant:normal;font-weight:normal;font-stretch:normal;font-family:Karla;-inkscape-font-specification:Karla;fill:#ffffff"
           d="m -663.86258,785.2742 q 3.84,0.16 6.12,2.12 2.28,1.92 2.64,5.56 h -4.68 q -0.6,-3.08 -4.08,-3.36 z m -1.6,4.32 q -1.44,0.16 -2.44,0.88 -1,0.72 -1,1.88 0,1.16 0.72,1.84 0.76,0.64 2.32,1.2 l 5.64,2.2 q 2.88,1.12 4.44,2.84 1.56,1.68 1.56,4.24 0,3.52 -2.56,5.52 -2.56,2 -7.08,2.12 v -4.36 q 1.6,0 3,-0.8 1.4,-0.84 1.4,-2.2 0,-1.4 -0.76,-2.12 -0.76,-0.76 -2.48,-1.4 l -5.16,-2.04 q -3,-1.16 -4.6,-2.72 -1.6,-1.56 -1.6,-4.32 0,-3.24 2.52,-5.12 2.56,-1.96 6.08,-1.96 z m 0,22.68 q -3.6,-0.24 -5.92,-2.08 -3,-2.32 -3.16,-6.56 h 4.68 q 0,3.2 3.32,4.04 0.48,0.12 1.08,0.2 z" />
        <path
           inkscape:connector-curvature="0"
           id="path3918"
           style="font-style:normal;font-variant:normal;font-weight:normal;font-stretch:normal;font-family:Karla;-inkscape-font-specification:Karla;fill:#ffffff"
           d="m -643.51383,800.1942 h 6.72 q 0,-3.16 -2,-4.24 -0.76,-0.4 -1.84,-0.4 -2.04,0 -3.16,1.32 -1.12,1.28 -1.32,3.32 v 3 q 0.08,2.36 1.16,3.84 1.08,1.48 3.28,1.48 2.92,0 3.48,-2.56 h 4.76 q -0.48,2.92 -2.68,4.6 -2.28,1.76 -5.56,1.76 -3.84,0 -6.44,-2.8 -2.68,-2.92 -2.68,-7.48 0,-4.68 2.68,-7.52 2.56,-2.72 6.44,-2.72 4.04,0 6.28,2.84 1,1.28 1.48,2.96 0.52,1.68 0.52,3.08 0,1.4 -0.16,2.52 l -10.96,0.04 z" />
        <path
           inkscape:connector-curvature="0"
           id="path3920"
           style="font-style:normal;font-variant:normal;font-weight:normal;font-stretch:normal;font-family:Karla;-inkscape-font-specification:Karla;fill:#ffffff"
           d="m -619.38195,791.7942 q 1.84,0 3.28,0.64 1.48,0.6 2.48,1.6 2,1.92 2.36,4.84 l -4.76,0.12 q -0.32,-1.28 -1.2,-2.12 -0.84,-0.84 -1.96,-0.84 -1.12,0 -1.92,0.36 -0.8,0.32 -1.4,1.04 -1.36,1.68 -1.36,4.64 0,2.96 1.28,4.48 1.28,1.48 3.08,1.48 1.84,0 2.64,-0.84 0.84,-0.88 0.84,-2.36 h 4.76 q 0,3.2 -2.12,5.32 -2.16,2.16 -6.04,2.16 -3.84,0 -6.44,-2.8 -2.76,-3 -2.76,-7.48 0,-4.72 2.76,-7.56 2.6,-2.68 6.48,-2.68 z" />
        <path
           inkscape:connector-curvature="0"
           id="path3922"
           style="font-style:normal;font-variant:normal;font-weight:normal;font-stretch:normal;font-family:Karla;-inkscape-font-specification:Karla;fill:#ffffff"
           d="m -592.69008,808.2342 q -1.84,3.88 -5.92,3.88 -5.16,0 -6.8,-4.04 -0.6,-1.4 -0.6,-3.4 v -12.4 h 4.72 v 11.92 q 0,1.92 0.92,2.88 0.92,0.92 2.24,0.92 1.36,0 2.28,-0.36 0.92,-0.4 1.6,-1.16 1.48,-1.72 1.56,-4.6 v -9.6 h 4.72 v 19.48 h -4.72 z" />
        <path
           inkscape:connector-curvature="0"
           id="path3924"
           style="font-style:normal;font-variant:normal;font-weight:normal;font-stretch:normal;font-family:Karla;-inkscape-font-specification:Karla;fill:#ffffff"
           d="m -575.81195,796.1542 q 1.76,-4.2 5.28,-4.2 0.68,0 1.72,0.28 l -0.08,4.72 q -1.12,-0.24 -2.2,-0.24 -4.72,0 -4.72,6.52 v 8.52 h -4.72 v -19.48 h 4.72 z" />
        <path
           inkscape:connector-curvature="0"
           id="path3926"
           style="font-style:normal;font-variant:normal;font-weight:normal;font-stretch:normal;font-family:Karla;-inkscape-font-specification:Karla;fill:#ffffff"
           d="m -563.49133,792.2742 h 4.72 v 19.48 h -4.72 z m -0.56,-6.24 q 0,-1.28 0.76,-2 0.76,-0.76 2.16,-0.76 1.36,0 2.12,0.76 0.8,0.72 0.8,2 0,1.28 -0.8,2.04 -0.76,0.72 -2.12,0.72 -1.4,0 -2.16,-0.72 -0.76,-0.76 -0.76,-2.04 z" />
        <path
           inkscape:connector-curvature="0"
           id="path3928"
           style="font-style:normal;font-variant:normal;font-weight:normal;font-stretch:normal;font-family:Karla;-inkscape-font-specification:Karla;fill:#ffffff"
           d="m -539.80633,811.2742 q -2.64,1.04 -4.16,1.04 -1.52,0 -2.68,-0.36 -1.12,-0.36 -2,-1.08 -1.84,-1.64 -1.84,-4.52 v -10.88 h -2.72 v -3.16 h 2.72 v -5.12 h 4.72 v 5.12 h 5.28 v 3.16 h -5.28 v 10.72 q 0,2.4 2.28,2.4 1.16,0 3,-0.64 z" />
        <path
           inkscape:connector-curvature="0"
           id="path3930"
           style="font-style:normal;font-variant:normal;font-weight:normal;font-stretch:normal;font-family:Karla;-inkscape-font-specification:Karla;fill:#ffffff"
           d="m -532.58508,792.3142 4.68,14 4.08,-14 h 4.8 l -7.44,22.96 q -1.16,3.48 -2.84,5 -1.64,1.52 -4.2,1.52 -2.6,0 -5.2,-1.28 v -4.16 q 2.08,1.32 4.2,1.32 1.4,0 2.28,-1.12 0.92,-1.12 1.48,-2.92 l 0.6,-1.88 -7.8,-19.44 z" />
      </g>
    </g>
    <flowRoot
       xml:space="preserve"
       id="flowRoot3933"
       style="fill:black;fill-opacity:1;stroke:none;font-family:Karla;font-style:normal;font-weight:normal;font-size:40px;line-height:1.25;letter-spacing:0px;word-spacing:0px;-inkscape-font-specification:Karla;font-stretch:normal;font-variant:normal;"><flowRegion
         id="flowRegion3935"
         style="-inkscape-font-specification:Karla;font-family:Karla;font-weight:normal;font-style:normal;font-stretch:normal;font-variant:normal;"><rect
           id="rect3937"
           width="240.71428"
           height="140"
           x="115.71429"
           y="543.94824"
           style="-inkscape-font-specification:Karla;font-family:Karla;font-weight:normal;font-style:normal;font-stretch:normal;font-variant:normal;" /></flowRegion><flowPara
         id="flowPara3939"></flowPara></flowRoot>    <flowRoot
       xml:space="preserve"
       id="flowRoot3968"
       style="font-style:normal;font-variant:normal;font-weight:normal;font-stretch:normal;font-size:40px;line-height:1.25;font-family:Karla;-inkscape-font-specification:Karla;letter-spacing:0px;word-spacing:0px;fill:#ff0000;fill-opacity:1;stroke:none"
       transform="matrix(0.26458333,0,0,0.26458333,10.576035,-24.606251)"><flowRegion
         id="flowRegion3970"
         style="font-style:normal;font-variant:normal;font-weight:normal;font-stretch:normal;font-family:Karla;-inkscape-font-specification:Karla;fill:#ff0000"><rect
           id="rect3972"
           width="282.14288"
           height="139.99998"
           x="131.42857"
           y="588.23395"
           style="font-style:normal;font-variant:normal;font-weight:normal;font-stretch:normal;font-family:Karla;-inkscape-font-specification:Karla;fill:#ff0000" /></flowRegion><flowPara
         id="flowPara3974"
         style="font-style:normal;font-variant:normal;font-weight:normal;font-stretch:normal;font-size:96px;font-family:monospace;-inkscape-font-specification:monospace;fill:#ffffff">*</flowPara></flowRoot>    <flowRoot
       xml:space="preserve"
       id="flowRoot3968-3"
       style="font-style:normal;font-variant:normal;font-weight:normal;font-stretch:normal;font-size:40px;line-height:1.25;font-family:Karla;-inkscape-font-specification:Karla;letter-spacing:0px;word-spacing:0px;fill:#ffffff;fill-opacity:1;stroke:none;"
       transform="matrix(0.26458333,0,0,0.26458333,-8.8340131,-10.424413)"><flowRegion
         id="flowRegion3970-3"
         style="font-style:normal;font-variant:normal;font-weight:normal;font-stretch:normal;font-family:Karla;-inkscape-font-specification:Karla;fill:#ffffff;"><rect
           id="rect3972-9"
           width="380.00003"
           height="109.99998"
           x="131.42857"
           y="588.23395"
           style="font-style:normal;font-variant:normal;font-weight:normal;font-stretch:normal;font-family:Karla;-inkscape-font-specification:Karla;fill:#ffffff;" /></flowRegion><flowPara
         id="flowPara3974-5"
         style="font-style:normal;font-variant:normal;font-weight:normal;font-stretch:normal;font-size:32px;font-family:Karla;-inkscape-font-specification:Karla;fill:#ffffff;">42=2A=101010</flowPara></flowRoot>  </g>
</svg>
